<svg xmlns="http://www.w3.org/2000/svg" viewBox="0 0 200 40" fill="none">
  <defs>
    <linearGradient id="g" x1="0" y1="0" x2="40" y2="40" gradientUnits="userSpaceOnUse">
      <stop offset="0%" stop-color="#6366f1"/>
      <stop offset="100%" stop-color="#8b5cf6"/>
    </linearGradient>
  </defs>
  <rect width="32" height="32" rx="7" y="4" fill="url(#g)"/>
  <path d="M16 9c-1 0-2 .4-2.7 1.1L5.7 17.7c-1.3 1.4-1.3 3.6 0 5l7.6 7.6c.7.7 1.7 1.1 2.7 1.1s2-.4 2.7-1.1l7.6-7.6c1.3-1.4 1.3-3.6 0-5l-7.6-7.6C18 9.4 17 9 16 9z" fill="none" stroke="white" stroke-width="2" stroke-linejoin="round"/>
  <path d="M16 14v8M16 22l-3-3M16 22l3-3" stroke="white" stroke-width="1.8" stroke-linecap="round" stroke-linejoin="round"/>
  <circle cx="16" cy="26" r="1.2" fill="white"/>
  <text x="40" y="26" font-family="system-ui, -apple-system, sans-serif" font-size="18" font-weight="700" fill="#1e1b4b">Syd Life AI</text>
</svg>
